<svg id="Group_4446" data-name="Group 4446" xmlns="http://www.w3.org/2000/svg" xmlns:xlink="http://www.w3.org/1999/xlink" width="186.143" height="38.565" viewBox="0 0 186.143 38.565">
  <defs>
    <clipPath id="clip-path">
      <rect id="Rectangle_1880" data-name="Rectangle 1880" width="186.143" height="38.565" fill="none"/>
    </clipPath>
    <clipPath id="clip-path-2">
      <rect id="Rectangle_2074" data-name="Rectangle 2074" width="84.956" height="1.133" fill="none"/>
    </clipPath>
  </defs>
  <g id="Group_4443" data-name="Group 4443">
    <g id="Group_4442" data-name="Group 4442" clip-path="url(#clip-path)">
      <path id="Path_10515" data-name="Path 10515" d="M13.625,11.716,9.72,14.146S3.645,6.248,0,4.165L42.575,0S10.5,4.513,7.984,6.075Z" fill="#3d3d3d"/>
      <path id="Path_10516" data-name="Path 10516" d="M76.773,0S62.367,3.84,51.736,24.516L47.614,15.4l-3.471,2.6s6.509,11.846,6.917,18.036c0,0,8.9-25.759,25.713-36.043" transform="translate(-31.603)" fill="#349574"/>
      <path id="Path_10517" data-name="Path 10517" d="M8.859,27.588s11-13.59,36.42-22.236A120.936,120.936,0,0,0,8.859,27.588" transform="translate(-6.342 -3.832)" fill="#3d3d3d"/>
      <path id="Path_10518" data-name="Path 10518" d="M442.268,110.042a2.466,2.466,0,0,0-2.46-1.241,4.319,4.319,0,0,0-2.685.846,3.86,3.86,0,0,0-1.467,2.381,3.719,3.719,0,0,0-.1.835,2.145,2.145,0,0,0,.8,1.805,3.088,3.088,0,0,0,1.952.564,4.115,4.115,0,0,0,3.035-1.264l.541.395a5.031,5.031,0,0,1-3.7,1.557,3.443,3.443,0,0,1-2.775-1.049,2.689,2.689,0,0,1-.621-1.817,4.629,4.629,0,0,1,.113-.981,4.78,4.78,0,0,1,1.783-2.911,5.18,5.18,0,0,1,3.272-1.049,3.089,3.089,0,0,1,3.035,1.534Z" transform="translate(-311.275 -77.401)" fill="#3d3d3d"/>
      <path id="Path_10519" data-name="Path 10519" d="M480.723,120.425a3.485,3.485,0,0,1-1.207.7,4.74,4.74,0,0,1-1.162.1,2.7,2.7,0,0,1-1.749-.53,1.953,1.953,0,0,1-.71-1.625,3.574,3.574,0,0,1,.079-.722,3.525,3.525,0,0,1,1.275-2.1,3.673,3.673,0,0,1,2.347-.784,2.744,2.744,0,0,1,1.76.53,1.985,1.985,0,0,1,.71,1.636,3.615,3.615,0,0,1-.079.722,3.529,3.529,0,0,1-1.264,2.076m.265-3.683a1.441,1.441,0,0,0-.683-.525,3.108,3.108,0,0,0-.857-.079,2.676,2.676,0,0,0-2.731,2.211,2.61,2.61,0,0,0-.068.564,1.49,1.49,0,0,0,.53,1.23,2.021,2.021,0,0,0,1.32.406,2.76,2.76,0,0,0,1.783-.6,2.708,2.708,0,0,0,.959-1.6,2.806,2.806,0,0,0,.068-.587,1.609,1.609,0,0,0-.321-1.021" transform="translate(-340.704 -82.661)" fill="#3d3d3d"/>
      <path id="Path_10520" data-name="Path 10520" d="M516.227,121.454l.124-.6a3.162,3.162,0,0,1-2.087.711,2.569,2.569,0,0,1-1.4-.339,1.352,1.352,0,0,1-.632-1.218,2.647,2.647,0,0,1,.057-.519l.756-3.554h.745l-.756,3.543a1.926,1.926,0,0,0-.045.395q0,1.015,1.41,1.015a2.3,2.3,0,0,0,1.557-.525,2.575,2.575,0,0,0,.812-1.45l.632-2.979h.745l-1.173,5.517Z" transform="translate(-366.72 -83.002)" fill="#3d3d3d"/>
      <path id="Path_10521" data-name="Path 10521" d="M547.091,118.867l-.474,2.234h-.745l1.173-5.517h.745l-.158.756a3.7,3.7,0,0,1,2.583-.88l-.135.677q-2.4,0-2.99,2.73" transform="translate(-390.803 -82.661)" fill="#3d3d3d"/>
      <path id="Path_10522" data-name="Path 10522" d="M572.562,115.784l1.2-5.641h.745l-1.2,5.641Zm1.7-6.374q-.237,0-.293-.282l.181-.812a.522.522,0,0,1,.406-.282q.181,0,.339.248l-.18.88a.721.721,0,0,1-.451.248" transform="translate(-409.911 -77.343)" fill="#3d3d3d"/>
      <path id="Path_10523" data-name="Path 10523" d="M593.236,118.631a2.585,2.585,0,0,0-.034.406q0,1.513,1.794,1.512a2.594,2.594,0,0,0,2.369-1.3h.767a3.484,3.484,0,0,1-3.294,1.974,2.716,2.716,0,0,1-1.7-.474,1.839,1.839,0,0,1-.677-1.557,3.812,3.812,0,0,1,.1-.835,3.568,3.568,0,0,1,3.554-2.9,2.857,2.857,0,0,1,1.715.474,1.806,1.806,0,0,1,.734,1.546,3.187,3.187,0,0,1-.079.677l-.09.462Zm2.742-2.493a2.705,2.705,0,0,0-1.6.48,2.677,2.677,0,0,0-.987,1.337h4.321a1.92,1.92,0,0,0,.023-.293,1.389,1.389,0,0,0-.508-1.151,1.969,1.969,0,0,0-1.252-.372" transform="translate(-424.154 -82.661)" fill="#3d3d3d"/>
      <path id="Path_10524" data-name="Path 10524" d="M628.149,118.867l-.474,2.234h-.745l1.173-5.517h.745l-.158.756a3.7,3.7,0,0,1,2.583-.88l-.135.677q-2.4,0-2.99,2.73" transform="translate(-448.835 -82.661)" fill="#3d3d3d"/>
      <path id="Path_10525" data-name="Path 10525" d="M137.832,27.286a.564.564,0,0,0-.377.133.724.724,0,0,0-.22.306.124.124,0,0,1-.016.047.47.47,0,0,0-.032.11q-.016.079-.047.228t-.086.369q-.055.22-.134.549t-.188.769a.642.642,0,0,0,.126.518.55.55,0,0,0,.455.22h7.642a4.051,4.051,0,0,1,3.381,1.639,4.319,4.319,0,0,1,.777,3.774.22.22,0,0,1-.008.047c-.005.021-.013.055-.024.1s-.026.115-.047.2-.05.2-.087.337-.078.306-.125.51-.1.442-.173.714l-.236.941q-.133.533-.29,1.208a4.645,4.645,0,0,1-1.632,2.51,4.432,4.432,0,0,1-2.84.973H128.292a.32.32,0,0,1,.008-.055c.005-.026.016-.068.031-.125s.037-.139.063-.243l.1-.408q.063-.251.141-.612t.2-.855q.118-.494.274-1.137t.345-1.443h13.51a.62.62,0,0,0,.612-.455.206.206,0,0,1,.008-.047c.005-.021.013-.057.024-.11s.029-.128.055-.228.057-.222.094-.369.081-.33.133-.549.11-.476.173-.769a.508.508,0,0,0-.055-.51.525.525,0,0,0-.447-.228h-7.7a4.1,4.1,0,0,1-3.389-1.608,4.3,4.3,0,0,1-.785-3.789.22.22,0,0,1,.008-.047c.005-.021.016-.058.032-.11s.034-.123.055-.212.047-.2.078-.337.073-.3.126-.5.11-.437.172-.714.139-.593.228-.949.191-.758.306-1.208q1.333-3.4,4.456-3.4h15.44a.34.34,0,0,1-.008.055c-.005.026-.016.068-.032.126s-.037.139-.063.243-.063.238-.11.4-.1.361-.157.6-.128.515-.212.839l-.29,1.122q-.165.636-.369,1.436h-13.51Z" transform="translate(-91.847 -16.086)" fill="#3d3d3d"/>
      <path id="Path_10526" data-name="Path 10526" d="M209.242,22.469H214.4a.068.068,0,0,1-.008.032c-.005.011-.013.029-.023.055a.773.773,0,0,0-.032.1l-.039.157c-.016.062-.037.139-.063.227s-.052.191-.078.306-.058.243-.094.384-.078.3-.125.486-.1.384-.157.6-.118.46-.18.722-.133.547-.212.855-.165.641-.259,1h3.7l-1.02,4.66h-3.75a.066.066,0,0,1-.008.031.265.265,0,0,0-.016.063q-.008.047-.023.118t-.039.181c-.016.073-.034.159-.055.259s-.05.217-.086.353-.076.29-.118.463-.089.369-.141.588-.11.463-.173.73-.133.562-.212.887-.165.675-.259,1.051-.2.79-.314,1.24a.975.975,0,0,0,.188.722.792.792,0,0,0,.675.314h2.683l-1.035,4.441H209.6a3.96,3.96,0,0,1-3.35-1.648,4.554,4.554,0,0,1-.777-3.828Z" transform="translate(-147.017 -16.086)" fill="#3d3d3d"/>
      <path id="Path_10527" data-name="Path 10527" d="M248.544,43.045a10.866,10.866,0,0,1,7.391-3.177h3.829a3.943,3.943,0,0,1,3.225,1.475,3.709,3.709,0,0,1,.745,3.374q-.126.47-.22.816t-.157.581q-.063.235-.11.392a2.333,2.333,0,0,0-.063.243.494.494,0,0,1-.032.117.122.122,0,0,0-.016.047,4.189,4.189,0,0,1-1.577,2.408,4.484,4.484,0,0,1-2.769.9h-4.739a1.478,1.478,0,0,1-1.287-1.091,2.273,2.273,0,0,1,.306-1.867,2.917,2.917,0,0,1,2.11-1.232h3q.094-.376.165-.651c.047-.183.089-.337.126-.463s.065-.23.086-.314.036-.149.047-.2.018-.078.024-.094a.124.124,0,0,0,.008-.039H255.4a4.817,4.817,0,0,0-2.9.886,4.907,4.907,0,0,0-1.742,2.848,3.651,3.651,0,0,0,.439,2.573,2.881,2.881,0,0,0,2.714,1.177h8.018q-.173.706-.322,1.255t-.267.965q-.118.416-.2.73t-.141.526q-.063.212-.094.345c-.021.089-.039.159-.055.212s-.026.089-.031.11a.207.207,0,0,0-.008.047h-9.163q-3.264,0-4.692-1.562a5.454,5.454,0,0,1-1.459-3.726,10.22,10.22,0,0,1,3.044-7.618" transform="translate(-175.759 -28.542)" fill="#3d3d3d"/>
      <path id="Path_10528" data-name="Path 10528" d="M317.281,55.906q-3.954-.423-5.225-3.428t.659-7.445q3.3-5.492,10.23-5.115h7.327l-.236.832h.016l-1.287,5.084-2.573,10.136h-5.131Zm6.37-10.073h-.016l.424-1.695H321.6a4.942,4.942,0,0,0-3.2,1.059,5.137,5.137,0,0,0-1.663,2.456q-.832,3.781,2.62,3.734h2.856Z" transform="translate(-223.047 -28.56)" fill="#3d3d3d"/>
      <path id="Path_10529" data-name="Path 10529" d="M391.113,37.8h-5.052l1.428-6.01h-3.17q-3.373-.032-4.456,3.719a3.509,3.509,0,0,0,.416,2.589,2.9,2.9,0,0,0,2.613,1.193h7.877l-1.1,4.205h-8.96a6.018,6.018,0,0,1-4.543-1.6,5.8,5.8,0,0,1-1.53-3.734,11.013,11.013,0,0,1,3.052-7.649,10.37,10.37,0,0,1,7.194-3.193h3.75l1.287-4.849h5.052Z" transform="translate(-268.212 -16.085)" fill="#3d3d3d"/>
      <path id="Path_10530" data-name="Path 10530" d="M438.742,25.952q1.208-3.483,4.456-3.483H457.65l-1.1,4.8h-8.411v.016h-4.064a.576.576,0,0,0-.353.141.774.774,0,0,0-.259.376l-.628,2.777h8.473l-1.035,4.8h-8.52l-1.82,8.112h-5.147Z" transform="translate(-311.275 -16.086)" fill="#349574"/>
      <path id="Path_10531" data-name="Path 10531" d="M501.184,55.906q-3.954-.423-5.225-3.428t.659-7.445q3.3-5.492,10.23-5.115h7.328l-.235.832h.016l-1.287,5.084L510.1,55.969h-5.131Zm6.371-10.073h-.016l.424-1.695H505.5a4.942,4.942,0,0,0-3.2,1.059,5.142,5.142,0,0,0-1.663,2.456q-.832,3.781,2.62,3.734h2.856Z" transform="translate(-354.707 -28.56)" fill="#349574"/>
      <path id="Path_10532" data-name="Path 10532" d="M574.531,27.426l1.2-4.958h5.162a.066.066,0,0,1-.008.032c-.005.011-.013.029-.023.055a.774.774,0,0,0-.032.1l-.039.157c-.016.062-.037.139-.063.227s-.053.191-.079.306-.057.243-.094.384-.079.3-.126.487-.1.384-.157.6-.118.46-.18.722-.133.547-.212.855-.164.641-.259,1h3.7l-1.02,4.66h-3.75a.076.076,0,0,1-.008.032.245.245,0,0,0-.016.063c-.005.031-.013.07-.024.117l-.039.181-.055.259q-.032.15-.086.353t-.118.463q-.062.259-.141.588t-.172.73q-.094.4-.212.887t-.259,1.051q-.142.565-.314,1.239a.973.973,0,0,0,.188.722.792.792,0,0,0,.675.314h2.683l-1.036,4.441h-3.531a3.96,3.96,0,0,1-3.35-1.647,4.553,4.553,0,0,1-.777-3.829l1.55-6.4H563.462q-.973-.047-1.114.706a.657.657,0,0,0,.416.769,3.177,3.177,0,0,0,1.31.141l2.087-.063q2.934.095,3.883,1.656a5.983,5.983,0,0,1,.51,4.166q-.973,4.676-6.449,4.5h-9.32l.894-4.362h8.269q1.318.11,1.585-.816.031-1.02-1.522-.926h-2.322a4.7,4.7,0,0,1-3.7-1.553,4.8,4.8,0,0,1-.792-4.158q1.4-4.582,7.045-4.252h10.285Z" transform="translate(-397.184 -16.085)" fill="#349574"/>
    </g>
  </g>
  <g id="Group_4445" data-name="Group 4445" transform="translate(36.444 34.91)">
    <g id="Group_4444" data-name="Group 4444" clip-path="url(#clip-path-2)">
      <path id="Path_10533" data-name="Path 10533" d="M128.292,122.892v0Z" transform="translate(-128.292 -122.892)" fill="#349574"/>
      <rect id="Rectangle_1881" data-name="Rectangle 1881" width="0.44" height="1.133" transform="translate(0 0)" fill="#349574"/>
      <rect id="Rectangle_1882" data-name="Rectangle 1882" width="0.44" height="1.133" transform="translate(0.44 0)" fill="#349574"/>
      <rect id="Rectangle_1883" data-name="Rectangle 1883" width="0.44" height="1.133" transform="translate(0.881 0)" fill="#359574"/>
      <rect id="Rectangle_1884" data-name="Rectangle 1884" width="0.44" height="1.133" transform="translate(1.321 0)" fill="#359574"/>
      <rect id="Rectangle_1885" data-name="Rectangle 1885" width="0.44" height="1.133" transform="translate(1.761 0)" fill="#359574"/>
      <rect id="Rectangle_1886" data-name="Rectangle 1886" width="0.44" height="1.133" transform="translate(2.201 0)" fill="#369574"/>
      <rect id="Rectangle_1887" data-name="Rectangle 1887" width="0.44" height="1.133" transform="translate(2.641 0)" fill="#369574"/>
      <rect id="Rectangle_1888" data-name="Rectangle 1888" width="0.44" height="1.133" transform="translate(3.082 0)" fill="#379675"/>
      <rect id="Rectangle_1889" data-name="Rectangle 1889" width="0.44" height="1.133" transform="translate(3.522 0)" fill="#379675"/>
      <rect id="Rectangle_1890" data-name="Rectangle 1890" width="0.44" height="1.133" transform="translate(3.962 0)" fill="#389675"/>
      <rect id="Rectangle_1891" data-name="Rectangle 1891" width="0.44" height="1.133" transform="translate(4.402 0)" fill="#389675"/>
      <rect id="Rectangle_1892" data-name="Rectangle 1892" width="0.44" height="1.133" transform="translate(4.842 0)" fill="#399675"/>
      <rect id="Rectangle_1893" data-name="Rectangle 1893" width="0.44" height="1.133" transform="translate(5.283 0)" fill="#399676"/>
      <rect id="Rectangle_1894" data-name="Rectangle 1894" width="0.44" height="1.133" transform="translate(5.723 0)" fill="#3a9776"/>
      <rect id="Rectangle_1895" data-name="Rectangle 1895" width="0.44" height="1.133" transform="translate(6.163 0)" fill="#3b9776"/>
      <rect id="Rectangle_1896" data-name="Rectangle 1896" width="0.44" height="1.133" transform="translate(6.603 0)" fill="#3b9776"/>
      <rect id="Rectangle_1897" data-name="Rectangle 1897" width="0.44" height="1.133" transform="translate(7.043 0)" fill="#3c9777"/>
      <rect id="Rectangle_1898" data-name="Rectangle 1898" width="0.44" height="1.133" transform="translate(7.483 0)" fill="#3c9777"/>
      <rect id="Rectangle_1899" data-name="Rectangle 1899" width="0.44" height="1.133" transform="translate(7.924 0)" fill="#3d9777"/>
      <rect id="Rectangle_1900" data-name="Rectangle 1900" width="0.44" height="1.133" transform="translate(8.364 0)" fill="#3e9878"/>
      <rect id="Rectangle_1901" data-name="Rectangle 1901" width="0.44" height="1.133" transform="translate(8.804 0)" fill="#3e9878"/>
      <rect id="Rectangle_1902" data-name="Rectangle 1902" width="0.44" height="1.133" transform="translate(9.244 0)" fill="#3f9878"/>
      <rect id="Rectangle_1903" data-name="Rectangle 1903" width="0.44" height="1.133" transform="translate(9.684 0)" fill="#409879"/>
      <rect id="Rectangle_1904" data-name="Rectangle 1904" width="0.44" height="1.133" transform="translate(10.125 0)" fill="#419979"/>
      <rect id="Rectangle_1905" data-name="Rectangle 1905" width="0.44" height="1.133" transform="translate(10.565 0)" fill="#419979"/>
      <rect id="Rectangle_1906" data-name="Rectangle 1906" width="0.44" height="1.133" transform="translate(11.005 0)" fill="#429979"/>
      <rect id="Rectangle_1907" data-name="Rectangle 1907" width="0.44" height="1.133" transform="translate(11.445 0)" fill="#43997a"/>
      <rect id="Rectangle_1908" data-name="Rectangle 1908" width="0.44" height="1.133" transform="translate(11.885 0)" fill="#439a7a"/>
      <rect id="Rectangle_1909" data-name="Rectangle 1909" width="0.44" height="1.133" transform="translate(12.326 0)" fill="#449a7a"/>
      <rect id="Rectangle_1910" data-name="Rectangle 1910" width="0.44" height="1.133" transform="translate(12.766 0)" fill="#449a7b"/>
      <rect id="Rectangle_1911" data-name="Rectangle 1911" width="0.44" height="1.133" transform="translate(13.206 0)" fill="#459a7b"/>
      <rect id="Rectangle_1912" data-name="Rectangle 1912" width="0.44" height="1.133" transform="translate(13.646 0)" fill="#469a7b"/>
      <rect id="Rectangle_1913" data-name="Rectangle 1913" width="0.44" height="1.133" transform="translate(14.086 0)" fill="#479b7c"/>
      <rect id="Rectangle_1914" data-name="Rectangle 1914" width="0.44" height="1.133" transform="translate(14.527 0)" fill="#489b7c"/>
      <rect id="Rectangle_1915" data-name="Rectangle 1915" width="0.44" height="1.133" transform="translate(14.967 0)" fill="#489b7c"/>
      <rect id="Rectangle_1916" data-name="Rectangle 1916" width="0.44" height="1.133" transform="translate(15.407 0)" fill="#499c7d"/>
      <rect id="Rectangle_1917" data-name="Rectangle 1917" width="0.44" height="1.133" transform="translate(15.847 0)" fill="#4a9c7d"/>
      <rect id="Rectangle_1918" data-name="Rectangle 1918" width="0.44" height="1.133" transform="translate(16.287 0)" fill="#4a9c7e"/>
      <rect id="Rectangle_1919" data-name="Rectangle 1919" width="0.44" height="1.133" transform="translate(16.728 0)" fill="#4b9d7e"/>
      <rect id="Rectangle_1920" data-name="Rectangle 1920" width="0.44" height="1.133" transform="translate(17.167 0)" fill="#4c9d7f"/>
      <rect id="Rectangle_1921" data-name="Rectangle 1921" width="0.44" height="1.133" transform="translate(17.608 0)" fill="#4d9d7f"/>
      <rect id="Rectangle_1922" data-name="Rectangle 1922" width="0.44" height="1.133" transform="translate(18.048 0)" fill="#4d9e80"/>
      <rect id="Rectangle_1923" data-name="Rectangle 1923" width="0.44" height="1.133" transform="translate(18.488 0)" fill="#4e9e80"/>
      <rect id="Rectangle_1924" data-name="Rectangle 1924" width="0.44" height="1.133" transform="translate(18.928 0)" fill="#4f9e80"/>
      <rect id="Rectangle_1925" data-name="Rectangle 1925" width="0.44" height="1.133" transform="translate(19.368 0)" fill="#509f81"/>
      <rect id="Rectangle_1926" data-name="Rectangle 1926" width="0.44" height="1.133" transform="translate(19.809 0)" fill="#519f81"/>
      <rect id="Rectangle_1927" data-name="Rectangle 1927" width="0.44" height="1.133" transform="translate(20.249 0)" fill="#519f82"/>
      <rect id="Rectangle_1928" data-name="Rectangle 1928" width="0.44" height="1.133" transform="translate(20.689 0)" fill="#52a082"/>
      <rect id="Rectangle_1929" data-name="Rectangle 1929" width="0.44" height="1.133" transform="translate(21.129 0)" fill="#53a083"/>
      <rect id="Rectangle_1930" data-name="Rectangle 1930" width="0.44" height="1.133" transform="translate(21.569 0)" fill="#54a083"/>
      <rect id="Rectangle_1931" data-name="Rectangle 1931" width="0.44" height="1.133" transform="translate(22.01 0)" fill="#55a183"/>
      <rect id="Rectangle_1932" data-name="Rectangle 1932" width="0.44" height="1.133" transform="translate(22.45 0)" fill="#55a184"/>
      <rect id="Rectangle_1933" data-name="Rectangle 1933" width="0.44" height="1.133" transform="translate(22.89 0)" fill="#56a184"/>
      <rect id="Rectangle_1934" data-name="Rectangle 1934" width="0.44" height="1.133" transform="translate(23.33 0)" fill="#57a285"/>
      <rect id="Rectangle_1935" data-name="Rectangle 1935" width="0.44" height="1.133" transform="translate(23.77 0)" fill="#58a285"/>
      <rect id="Rectangle_1936" data-name="Rectangle 1936" width="0.44" height="1.133" transform="translate(24.211 0)" fill="#59a286"/>
      <rect id="Rectangle_1937" data-name="Rectangle 1937" width="0.44" height="1.133" transform="translate(24.651 0)" fill="#59a386"/>
      <rect id="Rectangle_1938" data-name="Rectangle 1938" width="0.44" height="1.133" transform="translate(25.091 0)" fill="#5aa387"/>
      <rect id="Rectangle_1939" data-name="Rectangle 1939" width="0.44" height="1.133" transform="translate(25.531 0)" fill="#5ba387"/>
      <rect id="Rectangle_1940" data-name="Rectangle 1940" width="0.44" height="1.133" transform="translate(25.971 0)" fill="#5ca488"/>
      <rect id="Rectangle_1941" data-name="Rectangle 1941" width="0.44" height="1.133" transform="translate(26.412 0)" fill="#5da488"/>
      <rect id="Rectangle_1942" data-name="Rectangle 1942" width="0.44" height="1.133" transform="translate(26.852 0)" fill="#5ea489"/>
      <rect id="Rectangle_1943" data-name="Rectangle 1943" width="0.44" height="1.133" transform="translate(27.292 0)" fill="#5fa589"/>
      <rect id="Rectangle_1944" data-name="Rectangle 1944" width="0.44" height="1.133" transform="translate(27.732 0)" fill="#60a58a"/>
      <rect id="Rectangle_1945" data-name="Rectangle 1945" width="0.44" height="1.133" transform="translate(28.172 0)" fill="#61a68a"/>
      <rect id="Rectangle_1946" data-name="Rectangle 1946" width="0.44" height="1.133" transform="translate(28.612 0)" fill="#61a68b"/>
      <rect id="Rectangle_1947" data-name="Rectangle 1947" width="0.44" height="1.133" transform="translate(29.053 0)" fill="#62a68b"/>
      <rect id="Rectangle_1948" data-name="Rectangle 1948" width="0.44" height="1.133" transform="translate(29.493 0)" fill="#63a78c"/>
      <rect id="Rectangle_1949" data-name="Rectangle 1949" width="0.44" height="1.133" transform="translate(29.933 0)" fill="#64a78c"/>
      <rect id="Rectangle_1950" data-name="Rectangle 1950" width="0.44" height="1.133" transform="translate(30.373 0)" fill="#65a88d"/>
      <rect id="Rectangle_1951" data-name="Rectangle 1951" width="0.44" height="1.133" transform="translate(30.813 0)" fill="#66a88d"/>
      <rect id="Rectangle_1952" data-name="Rectangle 1952" width="0.44" height="1.133" transform="translate(31.254 0)" fill="#66a88e"/>
      <rect id="Rectangle_1953" data-name="Rectangle 1953" width="0.44" height="1.133" transform="translate(31.694 0)" fill="#67a98f"/>
      <rect id="Rectangle_1954" data-name="Rectangle 1954" width="0.44" height="1.133" transform="translate(32.134 0)" fill="#68a98f"/>
      <rect id="Rectangle_1955" data-name="Rectangle 1955" width="0.44" height="1.133" transform="translate(32.574 0)" fill="#69aa90"/>
      <rect id="Rectangle_1956" data-name="Rectangle 1956" width="0.44" height="1.133" transform="translate(33.015 0)" fill="#6aaa90"/>
      <rect id="Rectangle_1957" data-name="Rectangle 1957" width="0.44" height="1.133" transform="translate(33.454 0)" fill="#6baa91"/>
      <rect id="Rectangle_1958" data-name="Rectangle 1958" width="0.44" height="1.133" transform="translate(33.895 0)" fill="#6cab92"/>
      <rect id="Rectangle_1959" data-name="Rectangle 1959" width="0.44" height="1.133" transform="translate(34.335 0)" fill="#6dab92"/>
      <rect id="Rectangle_1960" data-name="Rectangle 1960" width="0.44" height="1.133" transform="translate(34.775 0)" fill="#6eac93"/>
      <rect id="Rectangle_1961" data-name="Rectangle 1961" width="0.44" height="1.133" transform="translate(35.215 0)" fill="#6eac93"/>
      <rect id="Rectangle_1962" data-name="Rectangle 1962" width="0.44" height="1.133" transform="translate(35.656 0)" fill="#6fad94"/>
      <rect id="Rectangle_1963" data-name="Rectangle 1963" width="0.44" height="1.133" transform="translate(36.096 0)" fill="#70ad95"/>
      <rect id="Rectangle_1964" data-name="Rectangle 1964" width="0.44" height="1.133" transform="translate(36.536 0)" fill="#71ae95"/>
      <rect id="Rectangle_1965" data-name="Rectangle 1965" width="0.44" height="1.133" transform="translate(36.976 0)" fill="#72ae96"/>
      <rect id="Rectangle_1966" data-name="Rectangle 1966" width="0.44" height="1.133" transform="translate(37.416 0)" fill="#73ae96"/>
      <rect id="Rectangle_1967" data-name="Rectangle 1967" width="0.44" height="1.133" transform="translate(37.857 0)" fill="#74af97"/>
      <rect id="Rectangle_1968" data-name="Rectangle 1968" width="0.44" height="1.133" transform="translate(38.296 0)" fill="#75af98"/>
      <rect id="Rectangle_1969" data-name="Rectangle 1969" width="0.44" height="1.133" transform="translate(38.737 0)" fill="#76b098"/>
      <rect id="Rectangle_1970" data-name="Rectangle 1970" width="0.44" height="1.133" transform="translate(39.177 0)" fill="#77b099"/>
      <rect id="Rectangle_1971" data-name="Rectangle 1971" width="0.44" height="1.133" transform="translate(39.617 0)" fill="#78b19a"/>
      <rect id="Rectangle_1972" data-name="Rectangle 1972" width="0.44" height="1.133" transform="translate(40.057 0)" fill="#79b19a"/>
      <rect id="Rectangle_1973" data-name="Rectangle 1973" width="0.44" height="1.133" transform="translate(40.497 0)" fill="#7ab29b"/>
      <rect id="Rectangle_1974" data-name="Rectangle 1974" width="0.44" height="1.133" transform="translate(40.938 0)" fill="#7bb39c"/>
      <rect id="Rectangle_1975" data-name="Rectangle 1975" width="0.44" height="1.133" transform="translate(41.378 0)" fill="#7cb39c"/>
      <rect id="Rectangle_1976" data-name="Rectangle 1976" width="0.44" height="1.133" transform="translate(41.818 0)" fill="#7db39d"/>
      <rect id="Rectangle_1977" data-name="Rectangle 1977" width="0.44" height="1.133" transform="translate(42.258 0)" fill="#7eb49e"/>
      <rect id="Rectangle_1978" data-name="Rectangle 1978" width="0.44" height="1.133" transform="translate(42.698 0)" fill="#7fb59f"/>
      <rect id="Rectangle_1979" data-name="Rectangle 1979" width="0.44" height="1.133" transform="translate(43.139 0)" fill="#80b59f"/>
      <rect id="Rectangle_1980" data-name="Rectangle 1980" width="0.44" height="1.133" transform="translate(43.579 0)" fill="#81b5a0"/>
      <rect id="Rectangle_1981" data-name="Rectangle 1981" width="0.44" height="1.133" transform="translate(44.019 0)" fill="#82b6a1"/>
      <rect id="Rectangle_1982" data-name="Rectangle 1982" width="0.44" height="1.133" transform="translate(44.459 0)" fill="#83b7a1"/>
      <rect id="Rectangle_1983" data-name="Rectangle 1983" width="0.44" height="1.133" transform="translate(44.899 0)" fill="#84b7a2"/>
      <rect id="Rectangle_1984" data-name="Rectangle 1984" width="0.44" height="1.133" transform="translate(45.34 0)" fill="#85b8a3"/>
      <rect id="Rectangle_1985" data-name="Rectangle 1985" width="0.44" height="1.133" transform="translate(45.78 0)" fill="#86b8a4"/>
      <rect id="Rectangle_1986" data-name="Rectangle 1986" width="0.44" height="1.133" transform="translate(46.22 0)" fill="#87b9a4"/>
      <rect id="Rectangle_1987" data-name="Rectangle 1987" width="0.44" height="1.133" transform="translate(46.66 0)" fill="#88b9a5"/>
      <rect id="Rectangle_1988" data-name="Rectangle 1988" width="0.44" height="1.133" transform="translate(47.1 0)" fill="#89baa6"/>
      <rect id="Rectangle_1989" data-name="Rectangle 1989" width="0.44" height="1.133" transform="translate(47.54 0)" fill="#8abaa6"/>
      <rect id="Rectangle_1990" data-name="Rectangle 1990" width="0.44" height="1.133" transform="translate(47.981 0)" fill="#8bbba7"/>
      <rect id="Rectangle_1991" data-name="Rectangle 1991" width="0.44" height="1.133" transform="translate(48.421 0)" fill="#8dbba8"/>
      <rect id="Rectangle_1992" data-name="Rectangle 1992" width="0.44" height="1.133" transform="translate(48.861 0)" fill="#8ebca9"/>
      <rect id="Rectangle_1993" data-name="Rectangle 1993" width="0.44" height="1.133" transform="translate(49.301 0)" fill="#8ebdaa"/>
      <rect id="Rectangle_1994" data-name="Rectangle 1994" width="0.44" height="1.133" transform="translate(49.741 0)" fill="#90bdaa"/>
      <rect id="Rectangle_1995" data-name="Rectangle 1995" width="0.44" height="1.133" transform="translate(50.182 0)" fill="#91beab"/>
      <rect id="Rectangle_1996" data-name="Rectangle 1996" width="0.44" height="1.133" transform="translate(50.622 0)" fill="#92beac"/>
      <rect id="Rectangle_1997" data-name="Rectangle 1997" width="0.44" height="1.133" transform="translate(51.062 0)" fill="#93bfad"/>
      <rect id="Rectangle_1998" data-name="Rectangle 1998" width="0.44" height="1.133" transform="translate(51.502 0)" fill="#94c0ad"/>
      <rect id="Rectangle_1999" data-name="Rectangle 1999" width="0.44" height="1.133" transform="translate(51.943 0)" fill="#95c0ae"/>
      <rect id="Rectangle_2000" data-name="Rectangle 2000" width="0.44" height="1.133" transform="translate(52.383 0)" fill="#96c1af"/>
      <rect id="Rectangle_2001" data-name="Rectangle 2001" width="0.44" height="1.133" transform="translate(52.823 0)" fill="#97c1b0"/>
      <rect id="Rectangle_2002" data-name="Rectangle 2002" width="0.44" height="1.133" transform="translate(53.263 0)" fill="#99c2b1"/>
      <rect id="Rectangle_2003" data-name="Rectangle 2003" width="0.44" height="1.133" transform="translate(53.703 0)" fill="#9ac3b1"/>
      <rect id="Rectangle_2004" data-name="Rectangle 2004" width="0.44" height="1.133" transform="translate(54.144 0)" fill="#9bc3b2"/>
      <rect id="Rectangle_2005" data-name="Rectangle 2005" width="0.44" height="1.133" transform="translate(54.584 0)" fill="#9cc4b3"/>
      <rect id="Rectangle_2006" data-name="Rectangle 2006" width="0.44" height="1.133" transform="translate(55.024 0)" fill="#9dc4b4"/>
      <rect id="Rectangle_2007" data-name="Rectangle 2007" width="0.44" height="1.133" transform="translate(55.464 0)" fill="#9fc5b5"/>
      <rect id="Rectangle_2008" data-name="Rectangle 2008" width="0.44" height="1.133" transform="translate(55.904 0)" fill="#a0c6b5"/>
      <rect id="Rectangle_2009" data-name="Rectangle 2009" width="0.44" height="1.133" transform="translate(56.344 0)" fill="#a1c6b6"/>
      <rect id="Rectangle_2010" data-name="Rectangle 2010" width="0.44" height="1.133" transform="translate(56.785 0)" fill="#a2c7b7"/>
      <rect id="Rectangle_2011" data-name="Rectangle 2011" width="0.44" height="1.133" transform="translate(57.224 0)" fill="#a3c8b8"/>
      <rect id="Rectangle_2012" data-name="Rectangle 2012" width="0.44" height="1.133" transform="translate(57.665 0)" fill="#a4c8b9"/>
      <rect id="Rectangle_2013" data-name="Rectangle 2013" width="0.44" height="1.133" transform="translate(58.105 0)" fill="#a6c9ba"/>
      <rect id="Rectangle_2014" data-name="Rectangle 2014" width="0.44" height="1.133" transform="translate(58.545 0)" fill="#a7cabb"/>
      <rect id="Rectangle_2015" data-name="Rectangle 2015" width="0.44" height="1.133" transform="translate(58.985 0)" fill="#a8cabb"/>
      <rect id="Rectangle_2016" data-name="Rectangle 2016" width="0.44" height="1.133" transform="translate(59.425 0)" fill="#aacbbd"/>
      <rect id="Rectangle_2017" data-name="Rectangle 2017" width="0.44" height="1.133" transform="translate(59.866 0)" fill="#abccbe"/>
      <rect id="Rectangle_2018" data-name="Rectangle 2018" width="0.44" height="1.133" transform="translate(60.306 0)" fill="#accdbe"/>
      <rect id="Rectangle_2019" data-name="Rectangle 2019" width="0.44" height="1.133" transform="translate(60.746 0)" fill="#adcdbf"/>
      <rect id="Rectangle_2020" data-name="Rectangle 2020" width="0.44" height="1.133" transform="translate(61.186 0)" fill="#aecec0"/>
      <rect id="Rectangle_2021" data-name="Rectangle 2021" width="0.44" height="1.133" transform="translate(61.626 0)" fill="#b0cfc1"/>
      <rect id="Rectangle_2022" data-name="Rectangle 2022" width="0.44" height="1.133" transform="translate(62.067 0)" fill="#b1cfc2"/>
      <rect id="Rectangle_2023" data-name="Rectangle 2023" width="0.44" height="1.133" transform="translate(62.507 0)" fill="#b2d0c3"/>
      <rect id="Rectangle_2024" data-name="Rectangle 2024" width="0.44" height="1.133" transform="translate(62.947 0)" fill="#b4d1c4"/>
      <rect id="Rectangle_2025" data-name="Rectangle 2025" width="0.44" height="1.133" transform="translate(63.387 0)" fill="#b5d1c5"/>
      <rect id="Rectangle_2026" data-name="Rectangle 2026" width="0.44" height="1.133" transform="translate(63.827 0)" fill="#b6d2c6"/>
      <rect id="Rectangle_2027" data-name="Rectangle 2027" width="0.44" height="1.133" transform="translate(64.268 0)" fill="#b8d3c7"/>
      <rect id="Rectangle_2028" data-name="Rectangle 2028" width="0.44" height="1.133" transform="translate(64.708 0)" fill="#b9d4c7"/>
      <rect id="Rectangle_2029" data-name="Rectangle 2029" width="0.44" height="1.133" transform="translate(65.148 0)" fill="#bad4c8"/>
      <rect id="Rectangle_2030" data-name="Rectangle 2030" width="0.44" height="1.133" transform="translate(65.588 0)" fill="#bcd5c9"/>
      <rect id="Rectangle_2031" data-name="Rectangle 2031" width="0.44" height="1.133" transform="translate(66.028 0)" fill="#bdd6ca"/>
      <rect id="Rectangle_2032" data-name="Rectangle 2032" width="0.44" height="1.133" transform="translate(66.469 0)" fill="#bed7cb"/>
      <rect id="Rectangle_2033" data-name="Rectangle 2033" width="0.44" height="1.133" transform="translate(66.909 0)" fill="#bfd7cc"/>
      <rect id="Rectangle_2034" data-name="Rectangle 2034" width="0.44" height="1.133" transform="translate(67.349 0)" fill="#c1d8cd"/>
      <rect id="Rectangle_2035" data-name="Rectangle 2035" width="0.44" height="1.133" transform="translate(67.789 0)" fill="#c2d9ce"/>
      <rect id="Rectangle_2036" data-name="Rectangle 2036" width="0.44" height="1.133" transform="translate(68.229 0)" fill="#c3dacf"/>
      <rect id="Rectangle_2037" data-name="Rectangle 2037" width="0.44" height="1.133" transform="translate(68.67 0)" fill="#c5dad0"/>
      <rect id="Rectangle_2038" data-name="Rectangle 2038" width="0.44" height="1.133" transform="translate(69.11 0)" fill="#c6dbd1"/>
      <rect id="Rectangle_2039" data-name="Rectangle 2039" width="0.44" height="1.133" transform="translate(69.55 0)" fill="#c7dcd2"/>
      <rect id="Rectangle_2040" data-name="Rectangle 2040" width="0.44" height="1.133" transform="translate(69.99 0)" fill="#c9ddd3"/>
      <rect id="Rectangle_2041" data-name="Rectangle 2041" width="0.44" height="1.133" transform="translate(70.43 0)" fill="#caded4"/>
      <rect id="Rectangle_2042" data-name="Rectangle 2042" width="0.44" height="1.133" transform="translate(70.87 0)" fill="#cbded5"/>
      <rect id="Rectangle_2043" data-name="Rectangle 2043" width="0.44" height="1.133" transform="translate(71.311 0)" fill="#cddfd6"/>
      <rect id="Rectangle_2044" data-name="Rectangle 2044" width="0.44" height="1.133" transform="translate(71.751 0)" fill="#cee0d7"/>
      <rect id="Rectangle_2045" data-name="Rectangle 2045" width="0.44" height="1.133" transform="translate(72.191 0)" fill="#d0e1d8"/>
      <rect id="Rectangle_2046" data-name="Rectangle 2046" width="0.44" height="1.133" transform="translate(72.631 0)" fill="#d1e2d9"/>
      <rect id="Rectangle_2047" data-name="Rectangle 2047" width="0.44" height="1.133" transform="translate(73.072 0)" fill="#d2e2da"/>
      <rect id="Rectangle_2048" data-name="Rectangle 2048" width="0.44" height="1.133" transform="translate(73.512 0)" fill="#d4e3dc"/>
      <rect id="Rectangle_2049" data-name="Rectangle 2049" width="0.44" height="1.133" transform="translate(73.952 0)" fill="#d6e4dd"/>
      <rect id="Rectangle_2050" data-name="Rectangle 2050" width="0.44" height="1.133" transform="translate(74.392 0)" fill="#d7e5de"/>
      <rect id="Rectangle_2051" data-name="Rectangle 2051" width="0.44" height="1.133" transform="translate(74.832 0)" fill="#d8e6df"/>
      <rect id="Rectangle_2052" data-name="Rectangle 2052" width="0.44" height="1.133" transform="translate(75.272 0)" fill="#dae7e0"/>
      <rect id="Rectangle_2053" data-name="Rectangle 2053" width="0.44" height="1.133" transform="translate(75.713 0)" fill="#dbe8e1"/>
      <rect id="Rectangle_2054" data-name="Rectangle 2054" width="0.44" height="1.133" transform="translate(76.153 0)" fill="#dde9e2"/>
      <rect id="Rectangle_2055" data-name="Rectangle 2055" width="0.44" height="1.133" transform="translate(76.593 0)" fill="#dfeae4"/>
      <rect id="Rectangle_2056" data-name="Rectangle 2056" width="0.44" height="1.133" transform="translate(77.033 0)" fill="#e1ebe5"/>
      <rect id="Rectangle_2057" data-name="Rectangle 2057" width="0.44" height="1.133" transform="translate(77.473 0)" fill="#e2ece6"/>
      <rect id="Rectangle_2058" data-name="Rectangle 2058" width="0.44" height="1.133" transform="translate(77.914 0)" fill="#e3ede7"/>
      <rect id="Rectangle_2059" data-name="Rectangle 2059" width="0.44" height="1.133" transform="translate(78.353 0)" fill="#e5eee9"/>
      <rect id="Rectangle_2060" data-name="Rectangle 2060" width="0.44" height="1.133" transform="translate(78.794 0)" fill="#e6efea"/>
      <rect id="Rectangle_2061" data-name="Rectangle 2061" width="0.44" height="1.133" transform="translate(79.234 0)" fill="#e8f0eb"/>
      <rect id="Rectangle_2062" data-name="Rectangle 2062" width="0.44" height="1.133" transform="translate(79.674 0)" fill="#eaf1ec"/>
      <rect id="Rectangle_2063" data-name="Rectangle 2063" width="0.44" height="1.133" transform="translate(80.114 0)" fill="#ebf2ee"/>
      <rect id="Rectangle_2064" data-name="Rectangle 2064" width="0.44" height="1.133" transform="translate(80.554 0)" fill="#edf3ef"/>
      <rect id="Rectangle_2065" data-name="Rectangle 2065" width="0.44" height="1.133" transform="translate(80.995 0)" fill="#eff4f0"/>
      <rect id="Rectangle_2066" data-name="Rectangle 2066" width="0.44" height="1.133" transform="translate(81.435 0)" fill="#f0f5f2"/>
      <rect id="Rectangle_2067" data-name="Rectangle 2067" width="0.44" height="1.133" transform="translate(81.875 0)" fill="#f2f6f3"/>
      <rect id="Rectangle_2068" data-name="Rectangle 2068" width="0.44" height="1.133" transform="translate(82.315 0)" fill="#f3f7f5"/>
      <rect id="Rectangle_2069" data-name="Rectangle 2069" width="0.44" height="1.133" transform="translate(82.755 0)" fill="#f5f9f6"/>
      <rect id="Rectangle_2070" data-name="Rectangle 2070" width="0.44" height="1.133" transform="translate(83.196 0)" fill="#f7faf8"/>
      <rect id="Rectangle_2071" data-name="Rectangle 2071" width="0.44" height="1.133" transform="translate(83.636 0)" fill="#f9fbfa"/>
      <rect id="Rectangle_2072" data-name="Rectangle 2072" width="0.44" height="1.133" transform="translate(84.076 0)" fill="#fcfdfc"/>
      <rect id="Rectangle_2073" data-name="Rectangle 2073" width="0.44" height="1.133" transform="translate(84.516 0)" fill="#fff"/>
      <path id="Path_10534" data-name="Path 10534" d="M427.353,124.024v0Z" transform="translate(-342.397 -122.891)" fill="#fff"/>
    </g>
  </g>
</svg>
